<!-- Generator: Adobe Illustrator 21.1.0, SVG Export Plug-In  -->
<svg version="1.1"
	 xmlns="http://www.w3.org/2000/svg" xmlns:xlink="http://www.w3.org/1999/xlink" xmlns:a="http://ns.adobe.com/AdobeSVGViewerExtensions/3.0/"
	 x="0px" y="0px" width="163.1px" height="44.2px" viewBox="0 0 163.1 44.2" style="enable-background:new 0 0 163.1 44.2;"
	 xml:space="preserve">
<style type="text/css">
	.st0{fill:#EE3F59;}
	.st1{fill:#922033;}
	.st2{fill:#8CC63F;}
	.st3{fill:#006837;}
	.st4{fill:#FDBF0F;}
	.st5{fill:#1B75BB;}
	.st6{fill:#F2D1A3;}
	.st7{fill:#CFD0D2;}
	.st8{fill:#AE690E;}
	.st9{fill:#39426A;}
	.st10{fill:#E1CBB2;}
</style>
<defs>
</defs>
<g>
	<g>
		<path class="st0" d="M27.1,7.3c0-2.1-1.7-3.7-3.7-3.7c-1.1,0-2,0.4-2.7,1.1c-0.8-0.8-1.8-1.2-3-1.1c-1.7,0.2-3.1,1.5-3.3,3.3
			c-0.1,0.6,0,1.1,0.2,1.7l0,0l1.7,3.6l0,0c0.7,1.4,1.4,2.1,2.7,2.1c0.6,0,1.2-0.2,1.7-0.6c0.5,0.4,1.1,0.6,1.7,0.6
			c1.3,0,2-0.7,2.8-2.1l0,0l1.7-3.6l0,0C27,8.1,27.1,7.7,27.1,7.3z"/>
		<path class="st1" d="M22.4,14.7C22.4,14.7,22.4,14.7,22.4,14.7c-1.2,0-2.3,0-3.4,0c0,0,0,0,0,0c-1.6,0-2.4-0.9-3.2-2.3
			c0,0,0,0,0-0.1L14,8.7c0,0,0,0,0,0c-0.2-0.6-0.3-1.1-0.2-1.6c0.1-1.7,1.2-3.3,2.8-3.8C18,2.7,19.6,3,20.7,4c0.8-0.6,1.7-1,2.7-1
			c2.3,0,4.2,1.9,4.2,4.3c0,0.5-0.1,1-0.2,1.4c0,0,0,0,0,0l-1.7,3.6c0,0,0,0,0,0.1C24.8,13.8,24,14.7,22.4,14.7z M20.7,13.1
			c0.1,0,0.2,0,0.3,0.1c0.4,0.3,0.9,0.5,1.4,0.5c1,0,1.6-0.4,2.3-1.8c0,0,0,0,0,0l1.7-3.6c0.1-0.3,0.2-0.7,0.2-1.1
			c0-1.8-1.5-3.2-3.2-3.2c-0.9,0-1.7,0.3-2.3,1c-0.1,0.1-0.2,0.2-0.4,0.2h0c-0.1,0-0.3-0.1-0.4-0.2c-0.7-0.7-1.6-1.1-2.6-1
			c-1.5,0.1-2.7,1.3-2.9,2.8c-0.1,0.5,0,0.9,0.2,1.5l1.7,3.6c0,0,0,0,0,0c0.7,1.4,1.3,1.8,2.3,1.8c0.5,0,1-0.2,1.4-0.5
			C20.5,13.2,20.6,13.1,20.7,13.1z"/>
	</g>
	<g>
		<path class="st2" d="M20.8,4.6V3.2c0-1.5,1.2-2.7,2.7-2.7h1.4v1.4c0,1.5-1.2,2.7-2.7,2.7H20.8z"/>
		<path class="st3" d="M22.1,5.1h-1.4c-0.3,0-0.5-0.2-0.5-0.5V3.2c0-1.8,1.4-3.2,3.2-3.2h1.4c0.3,0,0.5,0.2,0.5,0.5v1.4
			C25.3,3.6,23.9,5.1,22.1,5.1z M21.3,4.1h0.9c1.2,0,2.2-1,2.2-2.2V1h-0.9c-1.2,0-2.2,1-2.2,2.2V4.1z"/>
	</g>
</g>
<g>
	<path class="st4" d="M49.4,26.7V15.1c0-0.3,0.3-0.6,0.6-0.6h2.3c0.2,0,0.4,0.1,0.5,0.2l2.8,4.1l2.8-4.1c0.1-0.2,0.3-0.2,0.5-0.2
		h2.3c0.3,0,0.6,0.3,0.6,0.6v11.6c0,0.3-0.3,0.6-0.6,0.6h-2.1c-0.3,0-0.6-0.3-0.6-0.6v-7.3l-2,2.9c-0.4,0.6-1.4,0.6-1.9,0l-2-2.9
		v7.3c0,0.3-0.3,0.6-0.6,0.6H50C49.7,27.2,49.4,27,49.4,26.7z"/>
	<path class="st4" d="M64.3,26.7v-7.4c0-0.4,0.2-0.7,0.6-0.8c1.3-0.5,2.7-0.8,4.2-0.8c0.4,0,0.7,0.3,0.7,0.6v1.5
		c0,0.3-0.3,0.6-0.6,0.6c-0.6,0-1.1,0.1-1.5,0.1v6c0,0.4-0.3,0.7-0.7,0.7h-2C64.5,27.2,64.3,27,64.3,26.7z"/>
	<path class="st4" d="M70.9,26.6v-1.3c0-0.4,0.3-0.7,0.7-0.7H73c0.4,0,0.7,0.3,0.7,0.7v1.3c0,0.4-0.3,0.7-0.7,0.7h-1.4
		C71.2,27.2,70.9,26.9,70.9,26.6z"/>
	<path class="st4" d="M76.9,26.7V15.1c0-0.3,0.3-0.6,0.6-0.6h2.4c0.2,0,0.4,0.1,0.5,0.3l5,7.4v-7c0-0.3,0.3-0.6,0.6-0.6H88
		c0.3,0,0.6,0.3,0.6,0.6v11.6c0,0.3-0.3,0.6-0.6,0.6h-2.3c-0.2,0-0.4-0.1-0.5-0.2l-5-7.3v7c0,0.3-0.3,0.6-0.6,0.6h-2.1
		C77.1,27.2,76.9,27,76.9,26.7z"/>
	<path class="st4" d="M90.8,22.9v-4.6c0-0.3,0.3-0.6,0.6-0.6h2.1c0.3,0,0.6,0.3,0.6,0.6v5.2c0,0.9,0.4,1.4,1.1,1.4l0,0
		c0.8,0,1.1-0.5,1.1-1.4v-5.2c0-0.3,0.3-0.6,0.6-0.6h2.1c0.3,0,0.6,0.3,0.6,0.6v4.6c0,2.9-1.5,4.4-4.4,4.4
		C92.8,27.4,90.8,25.4,90.8,22.9z"/>
	<path class="st4" d="M100.8,20.8c0-1,0.4-1.8,1.1-2.3c0.7-0.5,1.6-0.8,2.7-0.8c0.8,0,1.6,0.2,2.4,0.6c0.2,0.1,0.3,0.3,0.3,0.5v0.9
		c0,0.4-0.4,0.7-0.8,0.5c-0.5-0.2-1-0.3-1.4-0.3c-0.7,0-1,0.2-1,0.7c0,0.1,0.1,0.3,0.4,0.4c0.3,0.1,0.6,0.3,1,0.4
		c0.4,0.2,0.8,0.4,1.2,0.6c0.4,0.2,0.7,0.5,1,1c0.3,0.4,0.4,0.9,0.4,1.5c0,0.9-0.4,1.6-1.1,2.1c-0.7,0.6-1.6,0.8-2.7,0.8
		c-1.1,0-2-0.3-2.9-0.8c-0.2-0.1-0.3-0.3-0.3-0.5V25c0-0.4,0.5-0.7,0.9-0.5c0.7,0.4,1.4,0.6,2,0.6c0.6,0,0.9-0.2,0.9-0.5
		c0-0.2-0.1-0.3-0.4-0.4c-0.3-0.1-0.6-0.3-1-0.4c-0.4-0.1-0.8-0.3-1.2-0.5c-0.4-0.2-0.7-0.5-1-0.9C101,21.8,100.8,21.3,100.8,20.8z"
		/>
	<path class="st4" d="M109,20.8c0-1,0.4-1.8,1.1-2.3c0.7-0.5,1.6-0.8,2.7-0.8c0.8,0,1.6,0.2,2.4,0.6c0.2,0.1,0.3,0.3,0.3,0.5v0.9
		c0,0.4-0.4,0.7-0.8,0.5c-0.5-0.2-1-0.3-1.4-0.3c-0.7,0-1,0.2-1,0.7c0,0.1,0.1,0.3,0.4,0.4c0.3,0.1,0.6,0.3,1,0.4
		c0.4,0.2,0.8,0.4,1.2,0.6c0.4,0.2,0.7,0.5,1,1c0.3,0.4,0.4,0.9,0.4,1.5c0,0.9-0.4,1.6-1.1,2.1c-0.7,0.6-1.6,0.8-2.7,0.8
		c-1.1,0-2-0.3-2.9-0.8c-0.2-0.1-0.3-0.3-0.3-0.5V25c0-0.4,0.5-0.7,0.9-0.5c0.7,0.4,1.4,0.6,2,0.6c0.6,0,0.9-0.2,0.9-0.5
		c0-0.2-0.1-0.3-0.4-0.4c-0.3-0.1-0.6-0.3-1-0.4s-0.8-0.3-1.2-0.5c-0.4-0.2-0.7-0.5-1-0.9C109.1,21.8,109,21.3,109,20.8z"/>
	<path class="st4" d="M117.6,24v-9.3c0-0.3,0.3-0.6,0.6-0.6h2.1c0.3,0,0.6,0.3,0.6,0.6v2.9c0.2,0,0.6,0,1.2,0c1.4,0,2.4,0.4,3.2,1.2
		c0.7,0.8,1.1,2,1.1,3.6c0,3.3-1.6,4.9-4.7,4.9c0,0,0,0,0,0c-0.9,0-1.6-0.1-2.1-0.3c-0.6-0.2-1-0.5-1.3-0.8
		c-0.3-0.3-0.5-0.7-0.6-1.1C117.6,24.9,117.6,24.5,117.6,24z M120.8,24.6c0,0.2,0.1,0.3,0.2,0.5c0.2,0.1,0.4,0.2,0.8,0.2
		c0.4,0,0.8-0.3,1-0.8c0.2-0.6,0.3-1.3,0.3-2.1c0-0.8-0.1-1.5-0.4-1.9c-0.3-0.5-0.7-0.7-1.2-0.7c-0.1,0-0.3,0-0.6,0V24.6z"/>
	<path class="st4" d="M127.4,24.4c0-0.2,0-0.4,0.1-0.6c0-0.2,0.2-0.4,0.3-0.7c0.2-0.3,0.4-0.5,0.7-0.8c0.3-0.2,0.7-0.4,1.2-0.6
		c0.6-0.2,1.2-0.2,1.9-0.2c0.4,0,0.7,0,0.9,0c0-0.5-0.1-0.9-0.4-1.1c-0.3-0.2-0.6-0.3-0.9-0.3c-0.7,0-1.4,0.1-2.2,0.3
		c-0.4,0.1-0.7-0.2-0.7-0.6v-1.3c0-0.2,0.2-0.5,0.4-0.5c1-0.3,1.9-0.5,2.7-0.5c1.4,0,2.5,0.4,3.2,1.1c0.8,0.7,1.1,1.7,1.1,3.1V24
		c0,1.2-0.3,2-1,2.6c-0.6,0.5-1.8,0.8-3.4,0.8C128.8,27.4,127.5,26.4,127.4,24.4z M130.7,23.9c0,0.7,0.3,1,0.9,1c0,0,0,0,0,0
		c0.3,0,0.5-0.1,0.7-0.4c0.2-0.2,0.3-0.5,0.3-0.8v-0.8c-0.3,0-0.5,0-0.6,0C131.1,22.9,130.7,23.2,130.7,23.9z"/>
	<path class="st4" d="M137.7,22.9v-4.6c0-0.3,0.3-0.6,0.6-0.6h2.1c0.3,0,0.6,0.3,0.6,0.6v5.2c0,0.9,0.4,1.4,1.1,1.4l0,0
		c0.8,0,1.1-0.5,1.1-1.4v-5.2c0-0.3,0.3-0.6,0.6-0.6h2.1c0.3,0,0.6,0.3,0.6,0.6v4.6c0,2.9-1.5,4.4-4.4,4.4
		C139.7,27.4,137.7,26.1,137.7,22.9z"/>
	<path class="st4" d="M149.1,27.2c-0.3,0-0.6-0.3-0.6-0.6v-8.1l0.1-0.1l0.4-0.1c0.2-0.1,0.3-0.1,0.6-0.2c0.2-0.1,0.5-0.1,0.7-0.2
		c0.3-0.1,0.6-0.1,0.9-0.2c0.3-0.1,0.6-0.1,1-0.1c0.4,0,0.7-0.1,1.1-0.1c0.9,0,1.7,0.2,2.3,0.6c1.1-0.4,2.2-0.6,3.3-0.6
		c1.3,0,2.4,0.3,3.1,1c0.8,0.7,1.1,1.7,1.1,3v5c0,0.3-0.3,0.6-0.6,0.6h-2.1c-0.3,0-0.6-0.3-0.6-0.6v-5.1c0-1-0.4-1.5-1.3-1.5
		c-0.5,0-0.9,0.1-1.3,0.2c0.2,0.5,0.2,0.9,0.2,1.4c0,0,0,0,0,0v5c0,0.3-0.3,0.6-0.6,0.6h-2.1c-0.3,0-0.6-0.3-0.6-0.6v-5.2
		c0-0.9-0.4-1.4-1.2-1.4c0,0,0,0,0,0c-0.3,0-0.7,0.1-1.1,0.2v6.4c0,0.3-0.3,0.6-0.6,0.6H149.1z"/>
</g>
<g>
	<path class="st5" d="M49.5,39.7v-10c0-0.4,0.3-0.7,0.7-0.7h1.6c0.4,0,0.7,0.3,0.7,0.7v8.4h4.5c0.4,0,0.7,0.3,0.7,0.7V40
		c0,0.4-0.3,0.7-0.7,0.7h-6.5C50,40.7,49.5,40.3,49.5,39.7z"/>
	<path class="st5" d="M59.1,36.4c0-1.4,0.3-2.5,1-3.3c0.7-0.8,1.7-1.3,3.1-1.3c1.3,0,2.3,0.4,3,1.2c0.7,0.8,1,1.8,1,3c0,0,0,0,0,0
		c0,0.5-0.4,0.9-1,0.9h-4.1c0,0.4,0.2,0.8,0.6,1c0.4,0.3,0.8,0.4,1.3,0.4c0.7,0,1.3-0.1,1.8-0.3c0.5-0.2,1,0.2,1,0.7v0.6
		c0,0.3-0.1,0.5-0.4,0.7c-0.9,0.5-1.9,0.7-3.1,0.7c-0.4,0-0.8,0-1.1-0.1c-0.4-0.1-0.7-0.2-1.1-0.4c-0.4-0.2-0.7-0.5-1-0.8
		c-0.3-0.3-0.5-0.7-0.7-1.3C59.2,37.8,59.1,37.2,59.1,36.4z M62.2,35.3h2c0-0.3-0.1-0.7-0.3-1c-0.2-0.3-0.4-0.5-0.7-0.5
		s-0.5,0.2-0.7,0.5C62.3,34.5,62.2,34.9,62.2,35.3z"/>
	<path class="st5" d="M68.7,38.2c0-0.2,0-0.4,0.1-0.5c0-0.2,0.1-0.4,0.3-0.7c0.2-0.3,0.4-0.5,0.6-0.7c0.3-0.2,0.6-0.4,1.2-0.5
		c0.5-0.1,1.1-0.2,1.8-0.2c0.4,0,0.6,0,0.8,0c0-0.5-0.1-0.8-0.4-1c-0.2-0.2-0.5-0.3-0.8-0.3c-0.6,0-1.2,0.1-1.7,0.2
		c-0.5,0.1-0.9-0.2-0.9-0.7V33c0-0.3,0.2-0.6,0.5-0.7c0.8-0.3,1.6-0.4,2.4-0.4c1.3,0,2.3,0.3,3,1c0.7,0.7,1.1,1.6,1.1,2.8v2.1
		c0,1.1-0.3,1.9-0.9,2.4c-0.6,0.5-1.6,0.7-3.2,0.7C70,40.9,68.7,40,68.7,38.2z M71.7,37.7c0,0.6,0.3,0.9,0.9,0.9c0,0,0,0,0,0
		c0.3,0,0.5-0.1,0.7-0.3c0.2-0.2,0.2-0.5,0.2-0.7v-0.7c-0.3,0-0.5,0-0.6,0C72.1,36.8,71.7,37.1,71.7,37.7z"/>
	<path class="st5" d="M78.9,40v-6.1c0-0.6,0.4-1.2,1-1.4c1-0.3,2.1-0.5,3.2-0.6c0.4,0,0.8,0.3,0.8,0.7v1.1c0,0.4-0.3,0.7-0.7,0.7
		c-0.5,0-0.9,0.1-1.3,0.1V40c0,0.4-0.3,0.7-0.7,0.7h-1.6C79.2,40.7,78.9,40.4,78.9,40z"/>
	<path class="st5" d="M86,40v-6.1c0-0.6,0.4-1.2,0.9-1.4c1.1-0.4,2.3-0.6,3.5-0.6c1.3,0,2.2,0.3,3,1c0.7,0.7,1.1,1.6,1.1,2.7V40
		c0,0.4-0.3,0.7-0.7,0.7h-1.6c-0.4,0-0.7-0.3-0.7-0.7v-4.9c0-0.2,0-0.3-0.1-0.4c0-0.1-0.2-0.2-0.4-0.4c-0.2-0.1-0.6-0.2-1-0.2
		c-0.3,0-0.6,0-0.9,0.1V40c0,0.4-0.3,0.7-0.7,0.7h-1.6C86.3,40.7,86,40.4,86,40z"/>
	<path class="st5" d="M97,30.3v-0.8c0-0.4,0.3-0.7,0.7-0.7h1.6c0.4,0,0.7,0.3,0.7,0.7v0.8c0,0.4-0.3,0.7-0.7,0.7h-1.6
		C97.4,31,97,30.7,97,30.3z M97.1,40v-7.3c0-0.4,0.3-0.7,0.7-0.7h1.6c0.4,0,0.7,0.3,0.7,0.7V40c0,0.4-0.3,0.7-0.7,0.7h-1.6
		C97.4,40.7,97.1,40.4,97.1,40z"/>
	<path class="st5" d="M102.9,40v-6.1c0-0.6,0.4-1.2,0.9-1.4c1.1-0.4,2.3-0.6,3.5-0.6c1.3,0,2.2,0.3,3,1c0.7,0.7,1.1,1.6,1.1,2.7V40
		c0,0.4-0.3,0.7-0.7,0.7h-1.6c-0.4,0-0.7-0.3-0.7-0.7v-4.9c0-0.2,0-0.3-0.1-0.4c0-0.1-0.2-0.2-0.4-0.4c-0.2-0.1-0.6-0.2-1-0.2
		c-0.3,0-0.6,0-0.9,0.1V40c0,0.4-0.3,0.7-0.7,0.7h-1.6C103.3,40.7,102.9,40.4,102.9,40z"/>
	<path class="st5" d="M113.7,36.3c0-3,1.4-4.5,4.2-4.5c0.7,0,1.3,0.1,1.8,0.3c0.5,0.2,0.9,0.4,1.1,0.7c0.2,0.3,0.4,0.6,0.5,1
		c0.1,0.3,0.2,0.7,0.2,1.1v5.5c0,0.3,0,0.6-0.1,0.9c-0.1,0.3-0.2,0.6-0.4,1c-0.2,0.4-0.4,0.7-0.7,0.9c-0.3,0.3-0.7,0.5-1.2,0.7
		c-0.5,0.2-1.1,0.3-1.8,0.3c-0.7,0-1.5-0.1-2.2-0.3c-0.3-0.1-0.6-0.4-0.6-0.7v-0.5c0-0.5,0.5-0.8,0.9-0.7c0.4,0.1,0.8,0.2,1.2,0.2
		c0.6,0,1-0.1,1.3-0.4c0.3-0.3,0.4-0.6,0.4-1.1c-0.3,0-0.6,0-0.8,0c-1.2,0-2.2-0.4-2.9-1.1C114,38.8,113.7,37.7,113.7,36.3z
		 M116.7,36.4c0,0.7,0.1,1.3,0.3,1.8c0.2,0.5,0.5,0.7,1,0.7c0.1,0,0.3,0,0.4-0.1v-4.2c0-0.5-0.2-0.7-0.7-0.7c-0.3,0-0.6,0.2-0.8,0.7
		C116.8,35.1,116.7,35.7,116.7,36.4z"/>
	<path class="st5" d="M124.2,35.7v-0.5c0-0.4,0.3-0.7,0.7-0.7h1.5V33c0-0.4,0.3-0.7,0.7-0.7h0.5c0.4,0,0.7,0.3,0.7,0.7v1.5h1.5
		c0.4,0,0.7,0.3,0.7,0.7v0.5c0,0.4-0.3,0.7-0.7,0.7h-1.5v1.5c0,0.4-0.3,0.7-0.7,0.7h-0.5c-0.4,0-0.7-0.3-0.7-0.7v-1.5h-1.5
		C124.5,36.5,124.2,36.2,124.2,35.7z"/>
	<path class="st5" d="M133.8,40V29.8c0-0.4,0.3-0.7,0.7-0.7h6.5c0.4,0,0.7,0.3,0.7,0.7v1c0,0.4-0.3,0.7-0.7,0.7h-4.2v2.4h3.6
		c0.4,0,0.7,0.3,0.7,0.7v1c0,0.4-0.3,0.7-0.7,0.7h-3.6V40c0,0.4-0.3,0.7-0.7,0.7h-1.6C134.1,40.7,133.8,40.4,133.8,40z"/>
	<path class="st5" d="M143.5,36.8v-4.1c0-0.4,0.3-0.7,0.7-0.7h1.6c0.4,0,0.7,0.3,0.7,0.7v4.6c0,0.9,0.4,1.3,1.1,1.3l0,0
		c0.7,0,1.1-0.4,1.1-1.3v-4.6c0-0.4,0.3-0.7,0.7-0.7h1.6c0.4,0,0.7,0.3,0.7,0.7v4.1c0,2.7-1.4,4.1-4.1,4.1
		C144.9,40.9,143.5,39.5,143.5,36.8z"/>
	<path class="st5" d="M154.3,40v-6.1c0-0.6,0.4-1.2,0.9-1.4c1.1-0.4,2.3-0.6,3.5-0.6c1.3,0,2.2,0.3,3,1c0.7,0.7,1.1,1.6,1.1,2.7V40
		c0,0.4-0.3,0.7-0.7,0.7h-1.6c-0.4,0-0.7-0.3-0.7-0.7v-4.9c0-0.2,0-0.3-0.1-0.4c0-0.1-0.2-0.2-0.4-0.4c-0.2-0.1-0.6-0.2-1-0.2
		c-0.3,0-0.6,0-0.9,0.1V40c0,0.4-0.3,0.7-0.7,0.7H155C154.6,40.7,154.3,40.4,154.3,40z"/>
</g>
<path class="st6" d="M36.2,34.1L3.3,34.3c0.8,0,1.5,0.7,1.5,1.5c0,0.8-0.7,1.5-1.5,1.5L36.2,37c0.8,0,1.5-0.7,1.5-1.5
	C37.6,34.7,37,34.1,36.2,34.1z"/>
<g>
	<path class="st7" d="M36.2,36.1L4.8,36.3c-0.2,0.6-0.7,1-1.4,1L36.2,37c0.8,0,1.5-0.7,1.5-1.5c0-0.2,0-0.3-0.1-0.5
		C37.4,35.6,36.8,36.1,36.2,36.1z"/>
</g>
<path class="st8" d="M0,39.1c0,1,0.9,1.8,2,1.8L36,40.8c3.1,0,5.7-2.4,5.6-5.2c0-2.9-2.6-5.2-5.7-5.2L2,30.6c-1.1,0-2,0.8-2,1.9"/>
<path class="st8" d="M0,32.4c0,1,0.9,1.8,2,1.8l1.2,0c0.7,0.1,1.3,0.7,1.3,1.5c0,0.8-0.6,1.4-1.3,1.5l-1.2,0c-1.1,0-2,0.8-2,1.9"/>
<path class="st8" d="M35.9,37L5.1,37.2c0.3-0.4,0.5-0.9,0.5-1.5c0-0.6-0.2-1.1-0.5-1.5l30.9-0.2c0.9,0,1.7,0.7,1.7,1.5
	C37.6,36.4,36.9,37,35.9,37z"/>
<path class="st4" d="M1,32.4c0,0.5,0.4,0.8,1,1.8L35.9,34c1.5-1,2.7,0.2,2.7,1.5c0,1.4-1.2,2.5-2.7,2.5L2,38.3c-0.5,0-1,0.4-1,0.8"
	/>
<path class="st4" d="M1.1,39.1c0,0.5,0.4,0.8,1,0.8L36,39.7c2.6,0,4.6-1.9,4.6-4.2c0-2.3-2.1-4.2-4.7-4.1L2,31.6c-0.5,0-1,0.4-1,0.8
	"/>
<path class="st8" d="M13.4,36.2l-8.4,0.1c-0.3,0-0.5-0.2-0.5-0.5c0-0.3,0.2-0.5,0.5-0.5l8.4-0.1c0.3,0,0.5,0.2,0.5,0.5
	C13.9,36,13.7,36.2,13.4,36.2z"/>
<path class="st9" d="M37.1,26.9c-0.1-0.1-0.1-0.1-0.2-0.1c-2.1-0.4-3.6-2.2-3.6-4.3c0-0.9,0.2-1.7,0.7-2.4c0,0,0,0,0,0
	c0.6-1,1.7-1.7,2.9-2c0.1,0,0.2-0.1,0.2-0.1c0.8-0.2,1.5-0.9,1.5-1.8c0-1-0.8-1.8-1.8-1.8L9.2,14.6c-4.4,0-8,3.6-7.9,8
	c0,4.4,3.6,8,8,7.9l27.5-0.1c1,0,1.8-0.8,1.8-1.8C38.6,27.8,37.9,27,37.1,26.9z M33.2,19.3l-15.2,0.1c-0.3,0-0.5,0.2-0.5,0.5
	s0.2,0.5,0.5,0.5l14.6-0.1c-0.2,0.5-0.3,1-0.4,1.6L9.2,22c-0.3,0-0.5,0.2-0.5,0.5c0,0.3,0.2,0.5,0.5,0.5l23-0.1c0.2,1.6,1,3,2.2,3.9
	L9.3,27c-2.4,0-4.4-2-4.4-4.4s2-4.4,4.4-4.4L34.4,18C34,18.4,33.6,18.8,33.2,19.3z M36.8,29.4L9.3,29.5c-3.8,0-7-3.1-7-6.9
	c0-3.8,3.1-7,6.9-7l27.5-0.1c0.4,0,0.7,0.3,0.7,0.7c0,0.4-0.3,0.7-0.7,0.7L9.2,17.1c-3,0-5.4,2.5-5.4,5.5c0,3,2.5,5.4,5.5,5.4
	l27.5-0.1c0.4,0,0.7,0.3,0.7,0.7C37.5,29,37.2,29.4,36.8,29.4z"/>
<path class="st5" d="M36.8,27.8L9.3,27.9c-3,0-5.4-2.4-5.4-5.4c0-3,2.4-5.4,5.4-5.4l27.5-0.1c0.5,0,0.8-0.4,0.8-0.8
	c0-0.5-0.4-0.8-0.8-0.8L9.2,15.5c-3.9,0-7,3.2-7,7s3.2,7,7,7l27.5-0.1c0.5,0,0.8-0.4,0.8-0.8S37.2,27.8,36.8,27.8z"/>
<path class="st10" d="M33.2,20.2l-15.2,0.1c-0.3-1-0.5-0.7-0.5-0.4s0.2,0.5,0.5,0.5l14.6-0.1c-0.2,0.5-0.3,1-0.4,1.6L9.2,22
	c-0.3,0-0.5,0.2-0.5,0.5c0,0.3,0.2,0.5,0.5,0.5l23-0.1c0.2,1.6,1,3,2.2,3.9L9.3,27c-2.4,0-4.4-2-4.4-4.4s2-4.4,4.4-4.4L34.4,18
	C34,18.4,33.6,18.8,33.2,20.2z"/>
<g>
	<path class="st7" d="M33.2,25.6l-24,0.1c-2.2,0-4.1-1.6-4.4-3.8c0,0.2,0,0.4,0,0.6c0,2.4,2,4.4,4.4,4.4l25.2-0.1
		C34,26.5,33.6,26.1,33.2,25.6z"/>
</g>
<path class="st7" d="M9.8,22l-0.7,9.7c0,0.2,0.2,0.3,0.4,0.2l1-0.7c0.3-0.2,0.8-0.2,1.1,0l1,0.8c0.2,0.1,0.4,0,0.4-0.2L12.7,22
	L9.8,22z"/>
<g>
	<path class="st0" d="M10.7,22.5l0,9.3c0,0.2,0.2,0.3,0.4,0.2l1-0.7c0.3-0.2,0.8-0.2,1.1,0l1,0.7c0.2,0.1,0.4,0,0.4-0.2l0-9.4
		L10.7,22.5z"/>
	<path class="st1" d="M10.8,32.5L10.8,32.5c-0.3-0.1-0.5-0.4-0.5-0.7l0-9.8l4.7,0l0,9.9c0,0.2-0.1,0.4-0.3,0.6
		c-0.2,0.2-0.6,0.2-0.9,0l-1-0.7c-0.2-0.1-0.4-0.1-0.6,0l-1,0.7C11.2,32.5,11,32.5,10.8,32.5z M11.2,23l0,8.5l0.6-0.4
		c0.5-0.3,1.2-0.3,1.6,0l0.7,0.5l0-8.5L11.2,23z"/>
</g>
</svg>
